<?xml version="1.0" encoding="UTF-8"?> <svg xmlns="http://www.w3.org/2000/svg" width="372" height="238" viewBox="0 0 372 238" fill="none"><path d="M56.9115 144.235C55.6552 144.235 54.3988 144.235 53.1425 144.109C52.7656 144.109 52.5144 143.732 52.64 143.48C52.64 143.102 53.0169 142.851 53.2682 142.976C55.6552 143.228 58.1678 143.228 60.5549 142.976C60.9318 142.976 61.183 143.228 61.183 143.48C61.183 143.857 60.9318 144.109 60.6805 144.109C59.4242 144.235 58.1678 144.235 56.9115 144.235ZM45.8558 142.725H45.7302C43.3431 142.095 40.9561 141.089 38.6947 139.956C38.4434 139.83 38.3178 139.452 38.4434 139.075C38.5691 138.823 38.946 138.697 39.3229 138.823C41.4586 139.956 43.8457 140.837 46.1071 141.466C46.484 141.592 46.6096 141.844 46.484 142.221C46.484 142.599 46.2327 142.725 45.8558 142.725ZM67.9672 142.725C67.716 142.725 67.4647 142.599 67.3391 142.221C67.2134 141.844 67.4647 141.592 67.716 141.466C70.103 140.837 72.3644 139.956 74.5002 138.823C74.7514 138.697 75.1283 138.823 75.3796 139.075C75.5052 139.327 75.3796 139.704 75.1283 139.956C72.8669 141.089 70.4799 141.97 68.0929 142.725C67.9672 142.725 67.9672 142.725 67.9672 142.725ZM32.6643 136.18C32.5387 136.18 32.413 136.18 32.2874 136.054C30.2773 134.544 28.3928 132.782 26.7595 131.02C26.5083 130.768 26.5083 130.391 26.7595 130.139C27.0108 129.887 27.3877 129.887 27.639 130.139C29.2722 131.901 31.1567 133.537 33.0412 135.047C33.2925 135.299 33.4181 135.677 33.1668 135.928C33.0412 136.054 32.9156 136.18 32.6643 136.18ZM81.1587 136.18C81.0331 136.18 80.7818 136.054 80.6562 135.928C80.4049 135.677 80.5306 135.299 80.7818 135.047C82.6663 133.537 84.5508 131.901 86.1841 130.139C86.4353 129.887 86.8122 129.887 87.0635 130.139C87.3148 130.391 87.3148 130.768 87.0635 131.02C85.4303 132.908 83.5458 134.544 81.5356 136.054C81.41 136.054 81.2844 136.18 81.1587 136.18ZM22.7393 125.23C22.488 125.23 22.3624 125.104 22.2367 124.979C20.8548 122.839 19.7241 120.574 18.8446 118.182C18.719 117.805 18.8446 117.553 19.2215 117.427C19.5984 117.301 19.8497 117.427 19.9753 117.805C20.8548 120.07 21.9855 122.336 23.2418 124.349C23.3674 124.601 23.3674 124.979 22.9905 125.23C22.9905 125.23 22.8649 125.23 22.7393 125.23ZM91.0838 125.23C90.9581 125.23 90.8325 125.23 90.7068 125.104C90.4556 124.979 90.33 124.601 90.4556 124.223C91.7119 122.21 92.8426 119.944 93.7221 117.679C93.8477 117.301 94.2246 117.175 94.4758 117.301C94.8527 117.427 94.9784 117.805 94.8528 118.056C93.9733 120.448 92.8426 122.713 91.4607 124.853C91.4607 125.104 91.2094 125.23 91.0838 125.23ZM17.337 111.386C17.0858 111.386 16.8345 111.134 16.7089 110.882C16.2063 108.365 15.9551 105.848 15.9551 103.331C15.9551 102.953 16.2063 102.701 16.5832 102.701C16.9601 102.701 17.2114 102.953 17.2114 103.331C17.2114 105.722 17.4627 108.239 17.8396 110.631C18.0908 111.008 17.8396 111.386 17.337 111.386C17.4627 111.386 17.4627 111.386 17.337 111.386ZM96.3603 111.386C95.8578 111.26 95.7322 111.008 95.7322 110.631C96.2347 108.239 96.3603 105.848 96.3603 103.331C96.3603 102.953 96.6116 102.701 96.9885 102.701C97.3654 102.701 97.6167 102.953 97.6167 103.205C97.6167 105.848 97.3654 108.365 96.9885 110.756C96.9885 111.134 96.7372 111.386 96.3603 111.386ZM17.337 96.6602C16.8345 96.5344 16.7089 96.2827 16.7089 95.9051C17.2114 93.3879 17.8396 90.9966 18.719 88.6052C18.8446 88.2277 19.2215 88.1018 19.4728 88.2277C19.8497 88.3535 19.9753 88.7311 19.8497 88.9828C18.9703 91.2483 18.3421 93.6396 17.8396 96.0309C17.8396 96.4085 17.5883 96.6602 17.337 96.6602ZM96.3603 96.5344C96.1091 96.5344 95.8578 96.2827 95.7322 96.0309C95.2296 93.6396 94.6015 91.2483 93.7221 88.9828C93.5964 88.6052 93.7221 88.3535 94.099 88.2277C94.4759 88.1018 94.7271 88.2277 94.8528 88.6052C95.7322 90.9966 96.486 93.3879 96.9885 95.9051C96.9885 96.0309 96.8629 96.4085 96.3603 96.5344C96.486 96.5344 96.3603 96.5344 96.3603 96.5344ZM22.6136 82.8157C22.488 82.8157 22.3624 82.8157 22.2367 82.6898C21.9855 82.564 21.8598 82.1864 21.9855 81.8088C23.2418 79.6692 24.875 77.6555 26.5083 75.7676C26.7595 75.5159 27.1364 75.5159 27.3877 75.7676C27.639 76.0193 27.639 76.3969 27.3877 76.6486C25.7545 78.4106 24.2469 80.4244 22.9905 82.4381C23.1162 82.6899 22.8649 82.8157 22.6136 82.8157ZM90.9581 82.6898C90.7069 82.6898 90.5812 82.564 90.4556 82.4381C89.1993 80.4244 87.6917 78.4106 86.0584 76.6486C85.8072 76.3969 85.8072 76.0193 86.0584 75.7676C86.3097 75.5159 86.6866 75.5159 86.9379 75.7676C88.6967 77.6555 90.2043 79.6692 91.4607 81.8088C91.5863 82.0606 91.5863 82.4381 91.2094 82.6898C91.2094 82.6898 91.0838 82.6898 90.9581 82.6898ZM32.5387 71.866C32.413 71.866 32.1618 71.7401 32.0361 71.6142C31.7849 71.3625 31.9105 70.9849 32.1618 70.7332C34.1719 69.2229 36.3077 67.8385 38.5691 66.7057C38.8203 66.5799 39.1972 66.7057 39.4485 66.9574C39.5741 67.2092 39.4485 67.5867 39.1972 67.8385C37.0615 68.9712 34.9257 70.2298 33.0412 71.7401C32.9156 71.866 32.6643 71.866 32.5387 71.866ZM45.8558 65.3213C45.6045 65.3213 45.3533 65.1954 45.2276 64.8178C45.102 64.4403 45.3533 64.1885 45.6045 64.0627C47.9916 63.4334 50.5042 62.9299 53.0169 62.6782C53.3938 62.6782 53.6451 62.9299 53.6451 63.1817C53.6451 63.5592 53.3938 63.811 53.1425 63.811C50.7555 64.0627 48.2428 64.4403 45.9814 65.1954C45.8558 65.3213 45.8558 65.3213 45.8558 65.3213Z" fill="#B2C1E8"></path><path d="M315.214 216.982C313.957 216.982 312.701 216.982 311.445 216.856C311.068 216.856 310.816 216.478 310.942 216.227C310.942 215.849 311.319 215.597 311.57 215.723C313.957 215.975 316.47 215.975 318.857 215.723C319.234 215.723 319.485 215.975 319.485 216.227C319.485 216.604 319.234 216.856 318.983 216.856C317.726 216.982 316.47 216.982 315.214 216.982ZM304.284 215.471H304.158C301.771 214.842 299.384 213.835 297.122 212.702C296.871 212.577 296.746 212.199 296.871 211.821C296.997 211.57 297.374 211.444 297.751 211.57C299.886 212.702 302.273 213.583 304.535 214.213C304.912 214.339 305.037 214.59 304.912 214.968C304.786 215.345 304.535 215.471 304.284 215.471ZM326.269 215.471C326.018 215.471 325.767 215.345 325.641 214.968C325.516 214.59 325.767 214.339 326.018 214.213C328.405 213.583 330.666 212.702 332.802 211.57C333.054 211.444 333.43 211.57 333.682 211.821C333.807 212.073 333.682 212.451 333.43 212.702C331.169 213.835 328.782 214.716 326.395 215.471H326.269ZM291.092 208.927C290.966 208.927 290.841 208.927 290.715 208.801C288.705 207.29 286.821 205.528 285.187 203.766C284.936 203.515 284.936 203.137 285.187 202.885C285.439 202.634 285.815 202.634 286.067 202.885C287.7 204.647 289.584 206.284 291.469 207.794C291.72 208.046 291.846 208.423 291.595 208.675C291.469 208.801 291.218 208.927 291.092 208.927ZM339.461 208.927C339.335 208.927 339.084 208.801 338.958 208.675C338.707 208.423 338.833 208.046 339.084 207.794C340.968 206.284 342.853 204.647 344.486 202.885C344.737 202.634 345.114 202.634 345.366 202.885C345.617 203.137 345.617 203.515 345.366 203.766C343.732 205.654 341.848 207.29 339.838 208.801C339.712 208.801 339.586 208.927 339.461 208.927ZM281.041 197.977C280.79 197.977 280.664 197.851 280.539 197.725C279.157 195.586 278.026 193.32 277.147 190.929C277.021 190.551 277.147 190.299 277.524 190.174C277.901 190.048 278.152 190.174 278.277 190.551C279.157 192.817 280.288 195.082 281.544 197.096C281.67 197.348 281.67 197.725 281.293 197.977C281.293 197.977 281.167 197.977 281.041 197.977ZM349.386 197.977C349.26 197.977 349.135 197.977 349.009 197.851C348.758 197.725 348.632 197.348 348.758 196.97C350.014 194.956 351.145 192.691 352.024 190.425C352.15 190.048 352.527 189.922 352.778 190.048C353.155 190.174 353.28 190.551 353.155 190.803C352.275 193.194 351.145 195.46 349.763 197.599C349.888 197.851 349.637 197.977 349.386 197.977ZM275.765 184.258C275.514 184.258 275.262 184.007 275.137 183.755C274.634 181.238 274.383 178.72 274.383 176.203C274.383 175.826 274.634 175.574 275.011 175.574C275.388 175.574 275.639 175.826 275.639 176.203C275.639 178.595 275.89 181.112 276.267 183.503C276.393 183.755 276.142 184.132 275.765 184.258ZM354.788 184.132C354.788 184.132 354.662 184.132 354.788 184.132C354.286 184.007 354.16 183.755 354.16 183.377C354.662 180.986 354.788 178.595 354.788 176.077C354.788 175.7 355.039 175.448 355.416 175.448C355.793 175.448 356.044 175.7 356.044 175.952C356.044 178.595 355.793 181.112 355.416 183.503C355.291 183.881 355.039 184.132 354.788 184.132ZM275.765 169.407C275.639 169.407 275.639 169.407 275.765 169.407C275.262 169.281 275.137 169.029 275.137 168.652C275.639 166.134 276.267 163.743 277.147 161.352C277.272 160.974 277.649 160.848 277.901 160.974C278.277 161.1 278.403 161.478 278.277 161.729C277.398 163.995 276.77 166.386 276.267 168.778C276.267 169.155 276.016 169.407 275.765 169.407ZM354.788 169.281C354.537 169.281 354.286 169.029 354.16 168.778C353.657 166.386 353.029 163.995 352.15 161.729C352.024 161.352 352.15 161.1 352.527 160.974C352.904 160.848 353.155 160.974 353.28 161.352C354.16 163.743 354.914 166.134 355.416 168.652C355.416 168.903 355.165 169.155 354.788 169.281ZM281.041 155.562C280.916 155.562 280.79 155.562 280.664 155.436C280.413 155.311 280.288 154.933 280.413 154.555C281.67 152.416 283.303 150.402 284.936 148.514C285.187 148.262 285.564 148.262 285.815 148.514C286.067 148.766 286.067 149.143 285.815 149.395C284.182 151.157 282.675 153.171 281.418 155.185C281.418 155.562 281.293 155.562 281.041 155.562ZM349.386 155.436C349.135 155.436 349.009 155.311 348.883 155.185C347.627 153.171 346.119 151.157 344.486 149.395C344.235 149.143 344.235 148.766 344.486 148.514C344.737 148.262 345.114 148.262 345.366 148.514C347.124 150.402 348.632 152.416 349.888 154.555C350.014 154.807 350.014 155.185 349.637 155.436C349.637 155.436 349.511 155.436 349.386 155.436ZM290.966 144.613C290.841 144.613 290.59 144.487 290.464 144.361C290.213 144.109 290.338 143.732 290.59 143.48C292.6 141.969 294.735 140.585 296.997 139.452C297.248 139.326 297.625 139.452 297.876 139.704C298.002 139.956 297.876 140.333 297.625 140.585C295.489 141.718 293.353 142.976 291.469 144.487C291.218 144.613 291.092 144.613 290.966 144.613ZM304.158 138.068C303.907 138.068 303.655 137.942 303.53 137.564C303.404 137.187 303.655 136.935 303.907 136.809C306.294 136.18 308.806 135.677 311.319 135.425C311.696 135.425 311.947 135.677 311.947 135.928C311.947 136.306 311.696 136.558 311.445 136.558C309.058 136.809 306.545 137.187 304.284 137.942C304.284 138.068 304.158 138.068 304.158 138.068Z" fill="#B2C1E8"></path><path d="M179.278 32.5978H157.292V29.0737L168.348 23.2842L179.403 29.0737V32.5978H179.278ZM157.418 32.3461H179.027V29.0737L168.222 23.41L157.418 29.0737V32.3461Z" fill="#B2C1E8"></path><path d="M178.021 31.339H158.548V29.8287L168.347 24.6685L178.147 29.8287V31.339H178.021ZM158.673 31.0873H177.77V29.9545L168.222 24.9202L158.673 29.9545V31.0873Z" fill="#B2C1E8"></path><path d="M162.82 34.6113H158.674V32.4717H162.82V34.6113ZM158.799 34.3596H162.568V32.5975H158.799V34.3596Z" fill="#B2C1E8"></path><path d="M161.94 43.6735H159.428V34.3599H161.94V43.6735ZM159.679 43.4217H161.815V34.6116H159.679V43.4217Z" fill="#B2C1E8"></path><path d="M178.399 45.6873H157.795V43.4219H178.399V45.6873ZM158.046 45.5615H178.273V43.6736H158.046V45.5615Z" fill="#B2C1E8"></path><path d="M177.77 34.6113H173.624V32.4717H177.77V34.6113ZM173.75 34.3596H177.519V32.5975H173.75V34.3596Z" fill="#B2C1E8"></path><path d="M176.891 43.6735H174.378V34.3599H176.891V43.6735ZM174.629 43.4217H176.765V34.6116H174.629V43.4217Z" fill="#B2C1E8"></path><path d="M168.473 42.2889H167.594V41.282C167.091 41.282 166.463 41.0303 166.086 40.7786L166.337 39.8976L166.463 40.0234C166.84 40.2752 167.342 40.401 167.845 40.401C168.473 40.401 168.976 40.0234 168.976 39.52C168.976 39.0166 168.724 38.7648 167.845 38.3873C166.965 38.0097 166.086 37.5063 166.086 36.4994C166.086 35.6184 166.714 34.9891 167.594 34.7373V33.7305H168.473V34.7373C168.976 34.7373 169.352 34.8632 169.729 35.1149H169.855L169.478 35.9959H169.352C169.227 35.8701 168.724 35.6184 168.096 35.6184C167.342 35.6184 167.091 35.9959 167.091 36.3735C167.091 36.877 167.342 37.0028 168.222 37.3804C169.352 37.8838 169.855 38.3873 169.855 39.2683C169.855 40.0234 169.352 40.9045 168.222 41.0303V42.2889H168.473ZM167.845 42.0372H168.222V41.0303H168.347C169.352 40.9045 169.855 40.1493 169.855 39.3941C169.855 38.639 169.478 38.0097 168.347 37.6321C167.468 37.2545 167.091 37.0028 167.091 36.3735C167.091 35.8701 167.468 35.3666 168.222 35.3666C168.85 35.3666 169.227 35.4925 169.478 35.6184L169.604 35.2408C169.227 35.1149 168.85 34.9891 168.347 34.9891H168.222V33.9822H167.845V34.9891H167.719C166.84 35.1149 166.337 35.7442 166.337 36.4994C166.337 37.2545 166.84 37.758 167.97 38.1355C168.85 38.5131 169.227 38.8907 169.227 39.3941C169.227 40.0234 168.724 40.5269 167.97 40.5269C167.468 40.5269 166.965 40.401 166.588 40.1493L166.463 40.6527C166.84 40.9045 167.342 41.0303 167.845 41.0303H167.97V42.0372H167.845Z" fill="#B2C1E8"></path><path d="M174.379 135.677V134.544C173.751 134.544 172.997 134.292 172.62 134.04L172.871 133.285C173.248 133.537 173.876 133.789 174.505 133.789C175.258 133.789 175.887 133.285 175.887 132.656C175.887 132.027 175.51 131.649 174.63 131.271C173.5 130.768 172.746 130.265 172.746 129.384C172.746 128.503 173.374 127.747 174.379 127.622V126.489H175.133V127.622C175.761 127.622 176.264 127.873 176.64 127.999L176.389 128.754C176.138 128.628 175.635 128.377 175.007 128.377C174.128 128.377 173.876 128.88 173.876 129.384C173.876 130.013 174.253 130.265 175.258 130.642C176.389 131.146 177.017 131.649 177.017 132.656C177.017 133.537 176.389 134.418 175.258 134.544V135.677H174.379Z" fill="#B2C1E8"></path><path d="M174.756 137.816C170.987 137.816 167.972 134.795 167.972 131.02C167.972 127.244 170.987 124.223 174.756 124.223C178.525 124.223 181.54 127.244 181.54 131.02C181.54 134.795 178.525 137.816 174.756 137.816ZM174.756 124.475C171.113 124.475 168.223 127.37 168.223 131.02C168.223 134.669 171.113 137.564 174.756 137.564C178.399 137.564 181.289 134.669 181.289 131.02C181.289 127.37 178.399 124.475 174.756 124.475Z" fill="#B2C1E8"></path><path d="M197.118 11.5793V10.4466C196.49 10.4466 195.736 10.1949 195.359 9.94316L195.611 9.18801C195.988 9.43972 196.616 9.69144 197.244 9.69144C197.998 9.69144 198.626 9.18801 198.626 8.55871C198.626 7.92941 198.249 7.55183 197.37 7.17426C196.239 6.67082 195.485 6.16738 195.485 5.28637C195.485 4.40535 196.113 3.65019 197.118 3.52434V2.3916H197.872V3.52434C198.5 3.52434 199.003 3.77605 199.38 3.90191L199.128 4.65707C198.877 4.53121 198.375 4.27949 197.746 4.27949C196.867 4.27949 196.616 4.78293 196.616 5.28637C196.616 5.91566 196.993 6.16738 197.998 6.54496C199.128 7.0484 199.757 7.55183 199.757 8.55871C199.757 9.43972 199.128 10.3207 197.998 10.4466V11.5793H197.118Z" fill="#B2C1E8"></path><path d="M197.495 13.7188C193.726 13.7188 190.711 10.6982 190.711 6.92238C190.711 3.1466 193.726 0.125977 197.495 0.125977C201.264 0.125977 204.279 3.1466 204.279 6.92238C204.279 10.6982 201.264 13.7188 197.495 13.7188ZM197.495 0.251836C193.852 0.251836 190.962 3.1466 190.962 6.79652C190.962 10.4464 193.852 13.3412 197.495 13.3412C201.138 13.3412 204.028 10.4464 204.028 6.79652C204.028 3.1466 201.138 0.251836 197.495 0.251836Z" fill="#B2C1E8"></path><path d="M254.909 196.466H228.903V182.496H254.909V196.466ZM229.28 196.215H254.658V182.748H229.28V196.215Z" fill="#B2C1E8"></path><path d="M250.135 194.579H233.803V194.453C233.803 192.942 232.547 191.81 231.165 191.81H231.039V187.405H231.165C232.672 187.405 233.803 186.146 233.803 184.762V184.636H250.135V184.762C250.135 186.272 251.392 187.405 252.774 187.405H252.899V191.81H252.774C251.266 191.81 250.135 193.068 250.135 194.453V194.579ZM234.054 194.327H249.884C250.01 192.817 251.14 191.558 252.774 191.432V187.656C251.266 187.531 250.01 186.398 249.884 184.762H234.054C233.929 186.272 232.798 187.531 231.165 187.656V191.432C232.798 191.558 233.929 192.691 234.054 194.327Z" fill="#B2C1E8"></path><path d="M243.854 191.81H240.211C238.954 191.81 237.949 190.803 237.949 189.544C237.949 188.286 238.954 187.279 240.211 187.279H243.854C245.11 187.279 246.115 188.286 246.115 189.544C246.115 190.803 245.11 191.81 243.854 191.81ZM240.085 187.531C238.954 187.531 238.075 188.412 238.075 189.544C238.075 190.677 238.954 191.558 240.085 191.558H243.728C244.859 191.558 245.738 190.677 245.738 189.544C245.738 188.412 244.859 187.531 243.728 187.531H240.085Z" fill="#B2C1E8"></path><path d="M234.557 191.055C233.678 191.055 232.924 190.299 232.924 189.418C232.924 188.537 233.678 187.782 234.557 187.782C235.436 187.782 236.19 188.537 236.19 189.418C236.065 190.425 235.436 191.055 234.557 191.055ZM234.557 188.16C233.803 188.16 233.301 188.789 233.301 189.418C233.301 190.048 233.929 190.677 234.557 190.677C235.311 190.677 235.813 190.048 235.813 189.418C235.813 188.789 235.185 188.16 234.557 188.16Z" fill="#B2C1E8"></path><path d="M249.256 191.055C248.377 191.055 247.623 190.299 247.623 189.418C247.623 188.537 248.377 187.782 249.256 187.782C250.136 187.782 250.889 188.537 250.889 189.418C250.889 190.425 250.136 191.055 249.256 191.055ZM249.256 188.16C248.502 188.16 248 188.789 248 189.418C248 190.048 248.628 190.677 249.256 190.677C250.01 190.677 250.513 190.048 250.513 189.418C250.513 188.789 250.01 188.16 249.256 188.16Z" fill="#B2C1E8"></path><path d="M86.3093 72.4952H81.7865V70.1039C80.9071 70.2297 79.902 70.2297 79.0226 70.2297C76.6355 70.2297 74.2485 69.8521 72.1127 69.097V72.4952H67.5899V66.7057C65.5798 65.1954 64.0722 63.3075 63.444 61.2937C62.1877 61.2937 60.4288 60.9161 59.5494 60.0351L59.0469 59.6575L59.5494 59.7834C59.5494 59.7834 61.3083 60.0351 62.8159 58.2731C62.8159 58.1472 62.8159 58.1472 62.8159 58.0214C62.8159 51.225 70.1026 45.813 79.0226 45.813C82.0378 45.813 85.053 46.4423 87.5656 47.7009C90.9577 44.4286 91.0834 44.5544 91.209 44.6803C91.3346 44.8061 91.4603 44.8061 91.3346 50.0922C93.8473 52.3577 95.2293 55.1266 95.2293 58.0214L98.3701 58.2731V58.3989C98.3701 58.7765 98.2445 59.28 98.2445 59.6575C97.9932 62.1747 97.7419 64.3143 93.2191 64.3143C93.0935 64.3143 93.0935 64.3143 92.9679 64.3143C91.3346 66.3281 89.0732 67.8384 86.4349 68.9711V72.4952H86.3093ZM82.0378 72.2435H85.9324V68.8453H86.058C88.822 67.8384 91.0834 66.2022 92.591 64.1885H92.7166C97.365 64.3143 97.4907 62.4264 97.7419 59.7834C97.7419 59.4058 97.8676 59.0282 97.8676 58.6507L94.7267 58.3989V58.1472C94.7267 55.2525 93.3448 52.4836 90.8321 50.3439V50.2181C90.9577 47.0716 90.8321 45.5613 90.8321 45.0579C90.4552 45.3096 89.4501 46.1906 87.5656 48.0785L87.44 48.2043H87.3144C84.8017 46.9457 81.7865 46.3164 78.7713 46.3164C69.977 46.3164 62.9415 51.7284 62.9415 58.2731C62.9415 58.3989 62.9415 58.3989 62.9415 58.5248C61.8108 59.9093 60.5545 60.161 59.8007 60.161C60.8057 60.7903 62.1877 61.042 63.3184 61.042H63.444V61.1679C64.1978 63.1816 65.5798 65.0695 67.5899 66.5798V72.2435H71.4846V68.7194L71.7358 68.8453C73.8716 69.6004 76.2586 70.1039 78.6457 70.1039C79.6507 70.1039 80.6558 69.978 81.5352 69.8521H81.6609V72.2435H82.0378Z" fill="#B2C1E8"></path><path d="M84.676 50.2181H73.7459C73.1178 50.2181 72.6152 49.7147 72.6152 49.0854C72.6152 48.4561 73.1178 47.9526 73.7459 47.9526H84.676C85.3042 47.9526 85.8067 48.4561 85.8067 49.0854C85.8067 49.7147 85.3042 50.2181 84.676 50.2181ZM73.7459 48.2044C73.2434 48.2044 72.8665 48.5819 72.8665 49.0854C72.8665 49.5888 73.2434 49.9664 73.7459 49.9664H84.676C85.1786 49.9664 85.5555 49.5888 85.5555 49.0854C85.5555 48.5819 85.1786 48.2044 84.676 48.2044H73.7459Z" fill="#B2C1E8"></path><path d="M92.0881 57.7696C91.5855 57.7696 91.083 57.2662 91.083 56.7627C91.083 56.2593 91.5855 55.7559 92.0881 55.7559C92.5906 55.7559 93.0931 56.2593 93.0931 56.7627C93.0931 57.2662 92.5906 57.7696 92.0881 57.7696ZM92.0881 56.1334C91.7112 56.1334 91.4599 56.3852 91.4599 56.7627C91.4599 57.1403 91.7112 57.392 92.0881 57.392C92.465 57.392 92.7163 57.1403 92.7163 56.7627C92.7163 56.3852 92.465 56.1334 92.0881 56.1334Z" fill="#B2C1E8"></path><path d="M323.38 59.154V59.0282C322.5 57.1403 320.867 55.63 318.731 55.1265H318.605L319.862 50.4697H319.987C323.505 51.3507 326.395 53.8679 327.777 57.1403V57.2661L323.38 59.154ZM318.982 54.8748C320.992 55.3782 322.751 56.8885 323.505 58.7764L327.4 57.0144C326.018 53.9938 323.254 51.6025 319.987 50.7214L318.982 54.8748Z" fill="#B2C1E8"></path><path d="M314.585 75.7673C308.178 75.7673 302.901 70.4812 302.901 64.0623C302.901 57.6435 308.178 52.3574 314.585 52.3574C315.465 52.3574 316.47 52.4833 317.475 52.735H317.6L316.344 57.3918H316.218C315.716 57.2659 315.088 57.1401 314.585 57.1401C310.816 57.1401 307.801 60.1607 307.801 63.9365C307.801 67.7123 310.816 70.7329 314.585 70.7329C315.59 70.7329 316.595 70.4812 317.6 69.9777L317.726 69.8519L319.987 74.1311L319.862 74.257C318.103 75.3897 316.344 75.7673 314.585 75.7673ZM314.585 52.735C308.304 52.735 303.278 57.7694 303.278 64.0623C303.278 70.3553 308.304 75.3897 314.585 75.3897C316.344 75.3897 317.977 75.0121 319.485 74.257L317.6 70.4812C316.595 70.9846 315.59 71.1105 314.585 71.1105C310.691 71.1105 307.55 67.964 307.55 64.0623C307.55 60.1607 310.691 57.0142 314.585 57.0142C315.088 57.0142 315.59 57.0142 316.093 57.1401L317.098 52.9867C316.218 52.8609 315.339 52.735 314.585 52.735Z" fill="#B2C1E8"></path><path d="M320.616 74.0052L317.978 69.9777L318.103 69.8519C320.113 68.5933 321.244 66.4537 321.244 64.0623C321.244 63.1813 320.993 62.1744 320.616 61.2934V61.1676L325.013 59.1538V59.2797C325.641 60.79 326.018 62.3003 326.018 63.9365C326.018 67.964 324.008 71.6139 320.616 73.7535V74.0052ZM318.48 69.9777L320.741 73.5018C323.882 71.3622 325.892 67.8381 325.892 64.0623C325.892 62.552 325.641 61.0417 325.013 59.6572L321.118 61.4193C321.495 62.3003 321.621 63.1813 321.621 64.0623C321.621 66.4537 320.49 68.7191 318.48 69.9777Z" fill="#B2C1E8"></path><path d="M113.823 22.0254H116.964V32.22H113.823V22.0254ZM116.587 22.403H114.075V31.9683H116.587V22.403Z" fill="#B2C1E8"></path><path d="M118.597 24.5425H121.863V32.2199H118.722V24.5425H118.597ZM121.486 24.7942H118.974V31.8423H121.486V24.7942Z" fill="#B2C1E8"></path><path d="M108.923 18.3755H112.064V32.0942H108.923V18.3755ZM111.687 18.7531H109.174V31.9683H111.687V18.7531Z" fill="#B2C1E8"></path><path d="M104.023 15.481H107.164V32.2202H104.023V15.481ZM106.913 15.7327H104.4V31.8427H106.913V15.7327Z" fill="#B2C1E8"></path><path d="M125.885 24.8256L125.885 24.9515C125.885 25.0774 125.759 25.0774 125.634 24.9515L103.396 11.6104C103.271 11.6104 103.271 11.4846 103.396 11.3587C103.396 11.2328 103.522 11.2328 103.648 11.3587L125.885 24.8256Z" fill="#B2C1E8"></path><path d="M105.783 10.8555C105.783 10.9813 105.783 11.1072 105.658 11.1072L103.145 11.4848L104.527 13.7502C104.527 13.8761 104.527 13.8761 104.527 14.002C104.401 14.002 104.401 14.002 104.276 14.002L102.768 11.4848L102.768 11.3589L102.894 11.233L105.532 10.7296C105.658 10.7296 105.658 10.7296 105.783 10.8555Z" fill="#B2C1E8"></path><path d="M349.888 145.116H346.747V134.921H349.888V145.116ZM346.998 144.864H349.511V135.299H346.998V144.864Z" fill="#B2C1E8"></path><path d="M344.988 145.116H341.848V131.397H344.988V145.116ZM342.099 144.864H344.612V131.775H342.099V144.864Z" fill="#B2C1E8"></path><path d="M327.148 135.047H330.289V145.242H327.148V135.047ZM330.038 135.299H327.525V144.864H330.038V135.299Z" fill="#B2C1E8"></path><path d="M332.048 131.523H335.189V145.242H332.048V131.523ZM334.937 131.775H332.425V144.864H334.937V131.775Z" fill="#B2C1E8"></path><path d="M340.089 145.116H336.948V127.748H340.089V145.116ZM337.199 144.864H339.712V128.125H337.199V144.864Z" fill="#B2C1E8"></path><path d="M338.455 125.482L349.134 129.761C349.26 129.761 349.26 129.887 349.26 130.013C349.26 130.139 349.134 130.139 349.009 130.139L338.455 125.86L327.023 130.516C326.897 130.516 326.897 130.516 326.771 130.39C326.771 130.265 326.771 130.265 326.897 130.139L338.455 125.482Z" fill="#B2C1E8"></path><path d="M346.873 130.516C346.873 130.39 346.873 130.265 346.999 130.265H349.511L348.506 127.873C348.506 127.747 348.506 127.747 348.632 127.621C348.758 127.496 348.758 127.621 348.883 127.747L350.014 130.39V130.516L349.888 130.642H347.124C346.999 130.642 346.873 130.642 346.873 130.516Z" fill="#B2C1E8"></path><path d="M33.7949 220.128C28.3926 220.128 24.1211 215.723 24.1211 210.437C24.1211 205.025 28.5183 200.746 33.7949 200.746C39.0715 200.746 43.4686 205.151 43.4686 210.437C43.5942 215.723 39.1971 220.128 33.7949 220.128ZM33.7949 200.872C28.6439 200.872 24.3724 205.151 24.3724 210.311C24.3724 215.472 28.6439 219.751 33.7949 219.751C38.9458 219.751 43.2174 215.472 43.2174 210.311C43.2174 205.151 39.0715 200.872 33.7949 200.872Z" fill="#B2C1E8"></path><path d="M33.7948 216.101C30.6539 216.101 28.0156 213.583 28.0156 210.311C28.0156 207.165 30.5283 204.521 33.7948 204.521C37.0612 204.521 39.5739 207.039 39.5739 210.311C39.5739 213.457 37.0612 216.101 33.7948 216.101ZM33.7948 204.899C30.7796 204.899 28.3925 207.29 28.3925 210.311C28.3925 213.332 30.7796 215.723 33.7948 215.723C36.81 215.723 39.197 213.332 39.197 210.311C39.3226 207.29 36.81 204.899 33.7948 204.899Z" fill="#B2C1E8"></path><path d="M33.7945 212.954C32.2869 212.954 31.1562 211.821 31.1562 210.311C31.1562 208.801 32.2869 207.668 33.7945 207.668C35.3021 207.668 36.4328 208.801 36.4328 210.311C36.4328 211.821 35.3021 212.954 33.7945 212.954ZM33.7945 208.046C32.5382 208.046 31.4075 209.052 31.4075 210.437C31.4075 211.695 32.4126 212.828 33.7945 212.828C35.0509 212.828 36.1816 211.821 36.1816 210.437C36.1816 209.052 35.1765 208.046 33.7945 208.046Z" fill="#B2C1E8"></path><path d="M33.795 210.311L18.5934 202.256C18.4678 202.256 18.4678 202.13 18.4678 202.004C18.4678 201.878 18.5934 201.878 18.719 201.878L33.9207 209.933C34.0463 209.933 34.0463 210.059 34.0463 210.185C33.9207 210.311 33.9207 210.311 33.795 210.311Z" fill="#B2C1E8"></path><path d="M22.1111 203.515C22.1111 203.515 21.9855 203.515 21.9855 203.389L20.9804 201.249L18.5934 199.487L19.4728 201.753C19.4728 201.879 19.4728 201.879 19.3472 202.005C19.2215 202.005 19.2215 202.004 19.0959 201.879L18.0908 199.11C18.0908 198.984 18.0908 198.984 18.0908 198.984H18.2165L21.106 201.123L22.1111 203.263C22.3624 203.389 22.2367 203.515 22.1111 203.515Z" fill="#B2C1E8"></path><path d="M19.5984 204.774L16.0807 203.767C15.9551 203.767 15.9551 203.641 15.9551 203.641C15.9551 203.515 15.9551 203.515 16.0807 203.515L18.719 202.886C18.8446 202.886 18.8446 202.886 18.8446 203.012C18.8446 203.137 18.8446 203.137 18.719 203.137L16.7089 203.641L19.5984 204.522L21.7342 204.27C21.8598 204.27 21.8598 204.27 21.8598 204.396C21.8598 204.522 21.8598 204.522 21.7342 204.522L19.5984 204.774C19.7241 204.774 19.7241 204.774 19.5984 204.774Z" fill="#B2C1E8"></path><path d="M238.704 177.588L241.844 182.37C243.226 184.51 246.116 185.013 248.252 183.629L249.131 183C251.267 181.615 251.769 178.72 250.388 176.581L247.247 171.798C245.865 169.658 242.975 169.155 240.839 170.539L239.96 171.169C237.824 172.679 237.322 175.448 238.704 177.588Z" fill="#91B8FB"></path><path d="M236.191 151.157L234.934 156.695C234.432 159.212 235.939 161.604 238.452 162.107L239.583 162.359C242.095 162.862 244.482 161.352 244.985 158.835L246.241 153.297C246.744 150.78 245.236 148.388 242.723 147.885L241.593 147.633C239.206 147.004 236.693 148.64 236.191 151.157Z" fill="#91B8FB"></path><path d="M292.851 163.366L291.594 168.903C291.092 171.421 292.599 173.812 295.112 174.315L296.243 174.567C298.755 175.071 301.142 173.56 301.645 171.043L302.901 165.505C303.404 162.988 301.896 160.597 299.384 160.093L298.253 159.842C295.866 159.338 293.353 160.848 292.851 163.366Z" fill="#91B8FB"></path><path d="M287.198 145.871L290.339 150.654C291.721 152.794 294.61 153.297 296.746 151.913L297.625 151.283C299.761 149.899 300.264 147.004 298.882 144.864L295.741 140.082C294.359 137.942 291.469 137.439 289.334 138.823L288.454 139.452C286.318 140.963 285.816 143.858 287.198 145.871Z" fill="#91B8FB"></path><path d="M252.523 131.02L247.749 134.166C245.613 135.551 245.111 138.445 246.493 140.459L247.121 141.34C248.503 143.48 251.392 143.983 253.403 142.599L258.177 139.452C260.312 138.068 260.815 135.173 259.433 133.159L258.805 132.278C257.423 130.264 254.659 129.635 252.523 131.02Z" fill="#91B8FB"></path><path d="M283.931 179.853L279.157 182.999C277.021 184.384 276.519 187.279 277.901 189.292L278.529 190.173C279.911 192.313 282.801 192.816 284.811 191.432L289.585 188.286C291.721 186.901 292.223 184.006 290.841 181.993L290.213 181.237C288.831 179.098 285.941 178.468 283.931 179.853Z" fill="#91B8FB"></path><path d="M266.593 185.265L260.94 184.132C258.427 183.629 256.04 185.265 255.538 187.656L255.286 188.789C254.784 191.306 256.417 193.698 258.804 194.201L264.458 195.334C266.97 195.837 269.357 194.201 269.86 191.81L270.111 190.677C270.739 188.16 269.106 185.768 266.593 185.265Z" fill="#91B8FB"></path><path d="M278.403 128.251L272.749 127.118C270.237 126.615 267.85 128.251 267.347 130.642L267.096 131.775C266.593 134.292 268.227 136.683 270.614 137.187L276.267 138.32C278.78 138.823 281.167 137.187 281.669 134.796L281.921 133.663C282.549 131.146 280.916 128.754 278.403 128.251Z" fill="#91B8FB"></path><path d="M263.202 131.901C247.121 135.047 236.568 150.654 239.709 166.764C242.849 182.874 258.428 193.446 274.509 190.299C290.59 187.153 301.143 171.546 298.002 155.436C294.862 139.452 279.283 128.88 263.202 131.901ZM281.293 158.834C282.549 165.631 278.152 172.301 271.368 173.56C264.584 174.819 257.925 170.413 256.669 163.617C255.413 156.821 259.81 150.15 266.594 148.892C273.378 147.507 279.911 152.038 281.293 158.834Z" fill="#91B8FB"></path><path d="M268.729 177.965C278.027 177.965 285.564 170.414 285.564 161.1C285.564 151.786 278.027 144.235 268.729 144.235C259.432 144.235 251.895 151.786 251.895 161.1C251.895 170.414 259.432 177.965 268.729 177.965Z" stroke="white" stroke-width="0.5069" stroke-miterlimit="10"></path><path d="M298.128 116.546L299.384 118.434C300.138 119.566 301.771 119.944 302.902 119.189C304.032 118.434 304.409 116.798 303.656 115.665L302.399 113.777C301.645 112.644 300.012 112.267 298.882 113.022C297.625 113.777 297.248 115.287 298.128 116.546Z" fill="#568FF8"></path><path d="M296.621 103.331L296.118 105.596C295.867 106.98 296.746 108.365 298.128 108.617C299.51 108.868 300.892 107.987 301.143 106.603L301.646 104.337C301.897 102.953 301.018 101.569 299.636 101.317C298.254 101.065 296.872 101.946 296.621 103.331Z" fill="#568FF8"></path><path d="M325.013 109.498L324.511 111.763C324.259 113.147 325.139 114.532 326.521 114.784C327.903 115.035 329.285 114.154 329.536 112.77L330.038 110.504C330.29 109.12 329.41 107.735 328.028 107.484C326.646 107.232 325.264 108.113 325.013 109.498Z" fill="#568FF8"></path><path d="M322.375 100.687L323.632 102.575C324.385 103.708 326.019 104.086 327.149 103.33C328.28 102.575 328.657 100.939 327.903 99.8064L326.647 97.9185C325.893 96.7858 324.26 96.4082 323.129 97.1634C321.873 97.9185 321.621 99.4289 322.375 100.687Z" fill="#568FF8"></path><path d="M304.661 93.1362L302.777 94.3948C301.646 95.1499 301.269 96.7861 302.023 97.9189C302.777 99.0516 304.41 99.4292 305.541 98.674L307.425 97.4154C308.556 96.6603 308.933 95.0241 308.179 93.8914C307.425 92.6328 305.792 92.381 304.661 93.1362Z" fill="#568FF8"></path><path d="M320.365 117.553L318.481 118.811C317.35 119.566 316.973 121.202 317.727 122.335C318.481 123.468 320.114 123.846 321.245 123.09L323.129 121.832C324.26 121.077 324.637 119.44 323.883 118.308C323.129 117.175 321.496 116.797 320.365 117.553Z" fill="#568FF8"></path><path d="M311.57 120.07L309.309 119.566C307.927 119.315 306.545 120.196 306.294 121.58C306.042 122.964 306.922 124.349 308.304 124.601L310.565 125.104C311.947 125.356 313.329 124.475 313.581 123.09C313.957 121.706 312.952 120.321 311.57 120.07Z" fill="#568FF8"></path><path d="M317.602 91.4999L315.34 90.9965C313.958 90.7448 312.576 91.6258 312.325 93.0102C312.074 94.3947 312.953 95.7791 314.335 96.0308L316.597 96.5343C317.979 96.786 319.36 95.905 319.612 94.5205C319.863 93.1361 318.984 91.8775 317.602 91.4999Z" fill="#568FF8"></path><path d="M310.189 93.3879C302.148 94.8982 296.872 102.701 298.379 110.882C299.887 118.937 307.676 124.223 315.842 122.713C323.883 121.203 329.159 113.4 327.652 105.219C326.018 97.1637 318.229 91.8776 310.189 93.3879ZM319.234 106.981C319.862 110.379 317.601 113.777 314.209 114.406C310.817 115.036 307.425 112.77 306.797 109.372C306.168 105.974 308.43 102.576 311.822 101.946C315.214 101.317 318.606 103.457 319.234 106.981Z" fill="#568FF8"></path><path d="M318.867 114.151C322.193 110.897 322.255 105.558 319.006 102.227C315.758 98.8956 310.428 98.8333 307.103 102.088C303.778 105.342 303.716 110.681 306.964 114.012C310.213 117.344 315.542 117.406 318.867 114.151Z" stroke="white" stroke-width="0.2844" stroke-miterlimit="10"></path><path d="M202.897 79.7949L206.164 85.081C208.174 88.3534 212.445 89.3602 215.712 87.3465C218.978 85.3327 219.983 81.0535 217.973 77.7812L214.707 72.4951C212.697 69.2227 208.425 68.2159 205.159 70.2296C201.892 72.2434 200.887 76.5226 202.897 79.7949Z" fill="#72A5FD"></path><path d="M200.259 44.0512L198.751 50.0924C197.746 53.7424 200.008 57.5181 203.777 58.525C207.42 59.5319 211.189 57.2664 212.194 53.4906L213.702 47.4494C214.707 43.7995 212.446 40.0237 208.677 39.0168C204.908 38.1358 201.138 40.4013 200.259 44.0512Z" fill="#72A5FD"></path><path d="M275.89 63.3075L274.382 69.3488C273.377 72.9987 275.639 76.7745 279.408 77.7814C283.051 78.7882 286.82 76.5228 287.825 72.747L289.333 66.7057C290.338 63.0558 288.076 59.28 284.307 58.2732C280.664 57.3921 276.895 59.6576 275.89 63.3075Z" fill="#72A5FD"></path><path d="M269.734 39.52L273.001 44.8061C275.011 48.0785 279.282 49.0853 282.549 47.0716C285.815 45.0578 286.82 40.7786 284.81 37.5063L281.544 32.2202C279.533 28.9478 275.262 27.941 271.996 29.9547C268.729 31.9685 267.724 36.2477 269.734 39.52Z" fill="#72A5FD"></path><path d="M222.748 17.4947L217.471 20.767C214.205 22.7807 213.2 27.06 215.21 30.3323C217.22 33.6047 221.491 34.6115 224.758 32.5978L230.034 29.3254C233.301 27.3117 234.306 23.0325 232.296 19.7601C230.286 16.6136 226.014 15.4809 222.748 17.4947Z" fill="#72A5FD"></path><path d="M262.573 84.8294L257.296 88.1017C254.03 90.1155 253.025 94.3947 255.035 97.667C257.045 100.939 261.317 101.946 264.583 99.9325L269.86 96.6601C273.126 94.6464 274.131 90.3672 272.121 87.0948C270.111 83.9483 265.839 82.9415 262.573 84.8294Z" fill="#72A5FD"></path><path d="M238.954 90.619L232.924 89.1087C229.155 88.2277 225.511 90.4932 224.632 94.2689C223.752 98.0447 226.014 101.695 229.783 102.576L235.813 104.086C239.582 104.967 243.226 102.702 244.105 98.9257C244.984 95.2758 242.723 91.5 238.954 90.619Z" fill="#72A5FD"></path><path d="M257.674 14.474L251.643 12.9637C247.874 12.0827 244.231 14.3481 243.352 18.1239C242.472 21.8997 244.734 25.5496 248.503 26.4306L254.533 27.941C258.302 28.822 261.945 26.5565 262.825 22.7807C263.704 19.1308 261.443 15.355 257.674 14.474Z" fill="#72A5FD"></path><path d="M237.572 18.8792C215.712 22.2774 200.762 42.7925 204.154 64.692C207.546 86.5915 228.024 101.569 249.884 98.1706C271.744 94.7724 286.695 74.2573 283.303 52.3578C279.911 30.4583 259.432 15.481 237.572 18.8792ZM260.689 56.0077C262.071 65.3213 255.789 74.0056 246.492 75.3901C237.195 76.7745 228.527 70.4815 227.145 61.168C225.763 51.8544 232.044 43.1701 241.341 41.7856C250.638 40.4012 259.307 46.6941 260.689 56.0077Z" fill="#72A5FD"></path><path d="M250.303 80.2107C262.254 76.5773 269.002 63.9261 265.375 51.9535C261.748 39.981 249.12 33.2207 237.169 36.8542C225.218 40.4876 218.469 53.1388 222.096 65.1114C225.723 77.0839 238.352 83.8442 250.303 80.2107Z" stroke="white" stroke-width="0.7656" stroke-miterlimit="10"></path><path d="M257.423 130.139H119.478V229.19H257.423V130.139Z" fill="#102048"></path><path d="M242.346 188.16H135.307C133.422 188.16 131.789 185.391 131.789 182.119V60.0354C131.789 56.6372 133.297 53.9941 135.307 53.9941H242.346C244.231 53.9941 245.864 56.763 245.864 60.0354V182.119C245.864 185.391 244.231 188.16 242.346 188.16Z" fill="#A8BFFF"></path><path d="M241.467 53.8682H136.312C133.925 53.8682 131.915 55.8819 131.915 58.2732V62.049H245.864V58.2732C245.864 55.8819 243.854 53.8682 241.467 53.8682Z" fill="#062758"></path><path d="M235.562 58.2734C235.562 58.9027 235.06 59.4061 234.431 59.4061C233.803 59.4061 233.301 58.9027 233.301 58.2734C233.301 57.6441 233.803 57.1406 234.431 57.1406C235.06 57.1406 235.562 57.6441 235.562 58.2734Z" fill="white"></path><path d="M238.954 58.2734C238.954 58.9027 238.451 59.4061 237.823 59.4061C237.195 59.4061 236.692 58.9027 236.692 58.2734C236.692 57.6441 237.195 57.1406 237.823 57.1406C238.451 57.1406 238.954 57.6441 238.954 58.2734Z" fill="white"></path><path d="M242.472 58.2734C242.472 58.9027 241.97 59.4061 241.342 59.4061C240.713 59.4061 240.211 58.9027 240.211 58.2734C240.211 57.6441 240.713 57.1406 241.342 57.1406C241.97 57.1406 242.472 57.6441 242.472 58.2734Z" fill="white"></path><path d="M209.431 77.4039H172.118C170.484 77.4039 169.103 76.0194 169.103 74.3833V72.1178C169.103 70.4816 170.484 69.0972 172.118 69.0972H209.431C211.064 69.0972 212.446 70.4816 212.446 72.1178V74.3833C212.32 76.1453 211.064 77.4039 209.431 77.4039Z" fill="#BCD7FF"></path><path d="M228.903 90.3673H152.518C150.885 90.3673 149.503 88.9828 149.503 87.3466V85.0812C149.503 83.445 150.885 82.0605 152.518 82.0605H228.903C230.536 82.0605 231.918 83.445 231.918 85.0812V87.3466C231.918 88.9828 230.536 90.3673 228.903 90.3673Z" fill="#BCD7FF"></path><path d="M207.546 75.3902H170.233C168.6 75.3902 167.218 74.0058 167.218 72.3696V70.1041C167.218 68.468 168.6 67.0835 170.233 67.0835H207.546C209.179 67.0835 210.561 68.468 210.561 70.1041V72.3696C210.436 74.1316 209.179 75.3902 207.546 75.3902Z" fill="#062758"></path><path d="M227.019 88.3536H150.634C149.001 88.3536 147.619 86.9691 147.619 85.333V83.0675C147.619 81.4313 149.001 80.0469 150.634 80.0469H227.019C228.653 80.0469 230.035 81.4313 230.035 83.0675V85.333C230.035 86.9691 228.653 88.3536 227.019 88.3536Z" fill="#062758"></path><path d="M220.486 109.75H144.98V114.28H220.486V109.75Z" fill="white"></path><path d="M231.291 123.216H144.98V127.747H231.291V123.216Z" fill="white"></path><path d="M225.26 136.809H178.398V141.34H225.26V136.809Z" fill="white"></path><path d="M187.822 162.485C187.319 162.485 186.817 162.359 186.565 161.855C186.188 161.352 186.188 160.471 186.188 159.967L186.691 148.137H187.319L186.817 159.967C186.817 160.471 186.817 161.1 187.068 161.352C187.57 162.107 188.952 161.478 189.204 161.352C190.46 160.597 191.465 159.338 192.345 158.08C193.35 156.695 194.355 155.185 195.988 154.43C196.867 154.052 197.621 154.681 198.124 155.059C198.501 155.311 198.752 155.562 199.003 155.688C199.882 155.94 200.636 155.688 201.516 155.437C202.27 155.185 203.023 155.059 203.903 155.185C204.657 155.311 205.285 155.562 205.787 155.94C206.667 156.318 207.42 156.695 208.426 156.443C209.933 156.066 211.315 155.185 212.571 154.43C212.948 154.178 213.325 153.926 213.702 153.675C215.21 152.794 217.471 151.661 219.733 152.164L219.607 152.794C217.597 152.29 215.461 153.423 214.079 154.178C213.702 154.43 213.325 154.681 212.948 154.933C211.566 155.814 210.184 156.695 208.551 157.073C207.295 157.45 206.29 156.947 205.41 156.443C204.908 156.192 204.28 155.94 203.652 155.814C203.023 155.688 202.27 155.94 201.516 156.066C200.636 156.318 199.631 156.569 198.626 156.318C198.124 156.192 197.872 155.814 197.495 155.562C196.867 155.059 196.49 154.807 195.988 154.933C194.606 155.562 193.601 156.947 192.596 158.331C191.591 159.716 190.711 161.1 189.204 161.855C188.952 162.359 188.324 162.485 187.822 162.485Z" fill="#102048"></path><path opacity="0.3" d="M245.864 135.047V192.691H131.538V130.139L167.218 160.219C169.228 161.855 171.741 162.485 174.253 162.107C175.007 161.981 175.761 161.981 176.515 161.981L200.888 162.736C201.767 162.736 202.521 162.862 203.4 162.988C205.913 163.491 208.551 162.988 210.687 161.478L245.864 135.047Z" fill="#86A7FF"></path><path d="M171.364 171.295L170.359 172.302L127.518 220.129L119.478 229.19V130.139L171.364 171.295Z" fill="#AB86FF"></path><path d="M257.423 130.139L205.536 171.295L257.423 229.19V130.139Z" fill="#AB86FF"></path><path d="M170.359 172.302L127.518 220.129L119.352 221.891V204.27C140.709 188.79 164.705 170.918 170.233 170.54L170.359 172.302Z" fill="#7759D3"></path><path d="M206.541 172.302L249.382 220.129L257.548 221.891V204.27C236.19 188.79 212.195 170.918 206.667 170.54L206.541 172.302Z" fill="#7759D3"></path><path d="M257.423 229.191H119.478V216.101L166.967 172.68C169.48 170.414 172.746 169.156 176.138 169.156H200.385C203.652 169.156 206.918 170.414 209.431 172.554L257.674 215.724L257.423 229.191Z" fill="#AB86FF"></path><path d="M131.539 229.19H80.5314C76.2599 229.19 72.7422 225.666 72.7422 221.387V104.841C72.7422 100.562 76.2599 97.0376 80.5314 97.0376H131.539C135.81 97.0376 139.328 100.562 139.328 104.841V221.387C139.328 225.666 135.936 229.19 131.539 229.19Z" fill="#4B96CD"></path><path d="M73.6211 220.883V105.596C73.6211 101.569 76.8876 98.2964 80.9078 98.2964H131.412C135.433 98.2964 138.699 101.569 138.699 105.596V220.883C138.699 224.911 135.433 228.183 131.412 228.183H80.7822C76.7619 228.183 73.6211 224.911 73.6211 220.883Z" fill="#062758"></path><path d="M101.261 102.324C100.884 102.324 100.507 101.946 100.507 101.569C100.507 101.191 100.884 100.813 101.261 100.813H110.809C111.186 100.813 111.563 101.191 111.563 101.569C111.563 101.946 111.186 102.324 110.809 102.324H101.261Z" fill="#375A64"></path><path d="M96.2352 102.324C95.8583 102.324 95.4814 101.946 95.4814 101.569C95.4814 101.191 95.8583 100.813 96.2352 100.813C96.6121 100.813 96.989 101.191 96.989 101.569C96.8634 101.946 96.6121 102.324 96.2352 102.324Z" fill="#375A64"></path><path d="M98.8739 102.324C98.497 102.324 98.1201 101.946 98.1201 101.569C98.1201 101.191 98.497 100.813 98.8739 100.813C99.2508 100.813 99.6277 101.191 99.6277 101.569C99.6277 101.946 99.2508 102.324 98.8739 102.324Z" fill="#375A64"></path><path d="M115.96 102.324C115.583 102.324 115.206 101.946 115.206 101.569C115.206 101.191 115.583 100.813 115.96 100.813C116.337 100.813 116.714 101.191 116.714 101.569C116.714 101.946 116.337 102.324 115.96 102.324Z" fill="#375A64"></path><path d="M113.196 102.324C112.819 102.324 112.442 101.946 112.442 101.569C112.442 101.191 112.819 100.813 113.196 100.813C113.573 100.813 113.95 101.191 113.95 101.569C113.95 101.946 113.699 102.324 113.196 102.324Z" fill="#375A64"></path><path d="M131.035 99.5547H121.739C120.231 99.5547 118.975 100.562 118.598 101.946L118.472 102.449C117.97 103.96 116.588 104.967 115.08 104.967H97.1144C95.4812 104.967 94.0992 103.96 93.7223 102.449L93.5967 101.946C93.2198 100.562 91.8378 99.5547 90.4559 99.5547H81.9128C78.2694 99.5547 75.3799 102.449 75.3799 106.099V220.254C75.3799 223.652 78.1438 226.421 81.5359 226.421H131.161C134.302 226.421 136.815 223.904 136.815 220.883V105.344C136.815 102.198 134.302 99.5547 131.035 99.5547Z" fill="#DFEBFA"></path><path d="M139.327 125.859C139.578 125.859 139.704 126.111 139.704 126.237V140.585C139.704 140.837 139.453 140.963 139.327 140.963V125.859Z" fill="#375A64"></path><path d="M72.7418 135.173C72.4905 135.173 72.2393 135.425 72.2393 135.676V144.361C72.2393 144.612 72.4905 144.864 72.7418 144.864V135.173Z" fill="#375A64"></path><path d="M72.7418 122.587C72.4905 122.587 72.2393 122.839 72.2393 123.09V131.775C72.2393 132.026 72.4905 132.278 72.7418 132.278V122.587Z" fill="#375A64"></path><path d="M72.7421 113.147C72.4909 113.147 72.3652 113.273 72.3652 113.525V117.175C72.3652 117.427 72.4909 117.553 72.7421 117.553V113.147Z" fill="#375A64"></path><path d="M64.4497 193.698C64.4497 193.698 54.5246 197.977 52.7658 197.977C51.0069 197.851 39.9512 194.579 39.9512 194.579L40.2024 196.467C40.2024 196.467 48.7455 201.375 51.6351 201.627C54.5246 201.879 64.5753 198.984 65.5804 198.355C66.5854 197.725 67.2136 194.327 64.4497 193.698Z" fill="#935022"></path><path d="M65.9578 177.839C65.9578 177.839 69.6011 177.084 71.36 178.469C74.6265 180.86 74.8777 189.167 76.0084 190.425C77.2647 191.684 80.1543 191.18 80.5312 197.473C80.7825 203.892 79.4005 204.396 81.0337 207.29C82.7926 210.185 80.2799 212.954 80.2799 212.954C80.2799 212.954 81.285 211.444 80.9081 210.185C80.9081 210.185 80.5312 212.702 78.898 213.332C77.2647 213.961 77.0135 214.339 76.7622 215.22C76.7622 215.22 63.1938 208.297 63.1938 203.263C63.1938 198.354 60.5555 193.446 61.8119 191.306C61.8119 191.306 61.1837 192.187 61.1837 193.194C61.1837 193.194 60.4299 191.684 61.8119 190.299C63.1938 188.915 60.1786 186.02 60.6812 182.622C60.9324 180.482 62.5657 177.965 65.9578 177.839Z" fill="#0C3563"></path><path d="M63.1934 198.354C64.0728 198.984 65.2035 199.487 66.4598 199.739C71.6108 200.872 73.4953 196.592 74.2491 193.572C73.4953 193.194 72.8671 193.068 72.4902 193.068C72.1133 193.068 71.7364 192.943 71.3595 192.943C70.7313 192.439 69.9776 190.677 69.7263 187.908L69.475 188.034L65.4548 189.167C65.4548 189.167 65.5804 190.425 65.706 191.684C65.8317 192.691 65.8317 193.572 65.5804 193.824C65.2035 193.949 65.0779 193.949 65.0779 193.949C65.2035 193.949 64.0728 195.963 63.1934 198.354Z" fill="#A06338"></path><path d="M65.7061 189.167C65.7061 189.167 65.8317 190.426 65.9573 191.684C68.2187 191.432 69.3494 189.293 69.7263 188.034L65.7061 189.167Z" fill="#935022"></path><path d="M64.9527 190.425C64.9527 190.425 70.3549 190.174 70.1036 186.775C69.8523 183.377 70.3549 181.112 66.9628 181.112C63.4451 181.112 62.9425 182.496 62.6913 183.629C62.5656 184.762 63.5707 190.425 64.9527 190.425Z" fill="#A06338"></path><path d="M62.8168 181.741C63.5706 180.608 64.1988 180.86 64.5757 181.112C67.4652 179.224 69.4754 181.489 69.4754 181.489C69.9779 183.881 71.8624 185.139 71.8624 185.139C71.8624 185.139 70.8573 185.768 68.5959 185.391C67.8421 185.265 67.214 184.762 66.7114 184.258C67.7165 185.768 69.0985 186.775 69.0985 186.775C66.3345 185.768 64.9526 181.993 64.8269 181.615C64.5757 181.993 63.9475 182.622 63.8219 183.251C63.5706 184.132 62.6912 185.517 62.1886 185.517C62.063 185.517 61.5605 183.377 62.8168 181.741Z" fill="#0C3563"></path><path d="M75.8822 209.43C76.3847 206.913 78.0179 196.97 76.3847 193.697C75.7565 192.565 73.6208 192.439 71.1081 192.565C70.3543 193.068 67.4647 194.956 66.2084 194.704C66.2084 194.704 66.2084 194.704 66.0828 194.704C65.4546 194.578 65.329 194.201 65.8315 193.823C65.8315 193.823 64.5752 193.697 63.0676 193.949C62.1882 194.075 59.9268 195.334 59.9268 195.334C59.9268 195.334 61.0575 197.473 62.8163 198.228C62.5651 200.871 62.942 202.004 65.7059 208.045C67.9673 213.206 65.4546 217.737 65.4546 217.737C65.4546 217.737 78.8974 228.56 79.023 223.023C78.8974 218.869 75.254 212.702 75.8822 209.43Z" fill="#F5727E"></path><path d="M64.7008 229.442C63.947 229.316 63.3188 228.938 62.9419 228.309C62.8163 228.183 62.8163 228.057 62.6907 228.057C61.1831 225.792 60.5549 218.618 57.1628 211.066C56.2834 209.178 53.2682 208.927 52.5144 206.787C52.5144 206.787 50.5043 199.991 56.409 199.865C62.3138 199.613 72.2388 218.744 72.3644 220.757C72.3644 222.519 76.1334 230.7 64.7008 229.442Z" fill="#233862"></path><path d="M41.208 229.316H49.6254C49.6254 229.316 49.8767 227.931 49.3742 227.05C48.8716 226.295 49.1229 225.792 49.3742 225.162C48.9973 225.288 48.4947 225.414 47.9922 225.414C47.6153 225.414 47.1128 225.162 46.7359 225.037C46.359 225.414 44.8514 227.176 44.3488 227.554C43.8463 227.806 41.3336 227.68 41.208 229.316Z" fill="#C95569"></path><path d="M75.003 196.341C75.003 196.341 76.1337 206.284 68.9726 208.423C61.9372 210.563 59.927 199.236 65.5805 198.48C71.3596 197.599 75.003 196.341 75.003 196.341Z" fill="#E06372"></path><path d="M52.2635 201.753C51.7609 205.528 49.7508 217.485 46.3587 223.4C45.228 225.288 49.2483 226.295 49.2483 226.295C49.7508 226.169 50.6302 225.288 51.0071 224.911C53.8967 222.394 59.5502 215.094 59.5502 209.304C59.5502 206.535 59.5502 201.123 57.5401 199.739C56.1581 198.984 52.3891 200.242 52.2635 201.753Z" fill="#233862"></path><path d="M69.726 229.316C69.726 229.316 69.4747 228.938 68.8466 228.057C68.2184 227.05 67.4646 225.162 66.5852 222.645C65.7057 220.002 64.575 216.856 63.1931 213.583C62.8162 212.577 62.3136 211.57 61.8111 210.437C60.9317 208.549 58.6703 208.801 57.7908 206.787C57.7908 206.787 54.5244 199.487 60.4291 199.361C66.3339 199.11 77.5153 218.744 78.1434 220.631C79.1485 222.645 82.5406 231.33 69.726 229.316Z" fill="#2B478B"></path><path d="M47.3633 229.316H55.7807C55.7807 229.316 56.032 227.931 55.5294 227.05C55.0269 226.295 55.2782 225.792 55.5294 225.162C55.1525 225.288 54.65 225.414 54.1475 225.414C53.7706 225.414 53.268 225.162 52.8911 225.037C52.5142 225.414 51.0066 227.176 50.5041 227.554C50.0016 227.806 47.6145 227.68 47.3633 229.316Z" fill="#F5727E"></path><path d="M66.5855 222.645C65.706 220.002 64.5753 216.856 63.1934 213.584C63.5703 211.066 64.3241 208.927 65.5804 207.92C65.706 207.92 68.7212 217.611 66.5855 222.645Z" fill="#253F75"></path><path d="M57.1634 201.501C56.6609 205.277 55.9071 217.611 52.515 223.401C51.3843 225.288 55.4045 226.295 55.4045 226.295C55.9071 226.17 56.7865 225.288 57.1634 224.911C60.053 222.394 65.7065 215.094 65.7065 209.304C65.7065 206.535 62.44 201.249 60.3042 199.991C59.0479 199.11 57.289 199.991 57.1634 201.501Z" fill="#2B478B"></path><path d="M38.9463 189.67L47.4894 188.789C47.7407 188.789 47.9919 188.915 48.1176 189.167L51.1328 197.222C51.2584 197.599 51.0071 197.977 50.6302 197.977L42.0872 198.354C41.8359 198.354 41.5846 198.229 41.5846 197.977L38.4438 190.425C38.3182 190.048 38.5694 189.67 38.9463 189.67Z" fill="#0C3563"></path><path d="M38.1924 189.796L46.7355 188.915C46.9868 188.915 47.238 189.041 47.3637 189.293L50.3789 197.348C50.5045 197.725 50.2532 198.103 49.8763 198.103L41.3333 198.48C41.082 198.48 40.8307 198.354 40.8307 198.103L37.6899 190.551C37.5643 190.174 37.8155 189.796 38.1924 189.796Z" fill="#535DAB"></path><path d="M42.9661 193.572C42.8404 193.32 42.9661 193.068 43.343 193.068C43.5942 193.068 43.9711 193.32 44.0968 193.572C44.2224 193.824 44.0968 194.075 43.7199 194.075C43.343 194.075 43.0917 193.824 42.9661 193.572Z" fill="#0C3563"></path><path d="M38.4434 190.551C38.4434 190.425 38.4434 190.299 38.569 190.299C38.6946 190.299 38.8203 190.425 38.9459 190.551C38.9459 190.677 38.9459 190.803 38.8203 190.803C38.6946 190.803 38.4434 190.677 38.4434 190.551Z" fill="#0C3563"></path><path d="M74.375 193.698C74.375 193.698 62.4398 198.103 60.681 197.977C59.5503 197.977 49.8765 194.579 49.8765 194.579L48.9971 196.215C48.9971 196.215 58.4196 202.256 60.9322 202.256C65.9576 202.256 74.6262 199.11 75.5057 198.48C76.5107 197.725 77.1389 194.327 74.375 193.698Z" fill="#A06338"></path><path d="M49.8763 194.579C49.8763 194.579 48.9969 193.194 48.1174 193.194C47.238 193.194 45.7304 193.824 45.2279 193.824C44.7254 193.949 43.2177 194.453 43.7203 195.082C44.0972 195.837 46.1073 195.963 46.9868 195.837C47.8662 195.712 48.9969 196.215 48.9969 196.215L49.8763 194.579Z" fill="#A06338"></path><path d="M48.3691 193.194C48.3691 193.194 46.9871 192.565 46.6102 192.439C46.2333 192.313 46.359 192.439 46.359 192.817C46.4846 193.194 47.2384 193.572 47.2384 193.698C47.2384 193.824 48.3691 193.194 48.3691 193.194Z" fill="#A06338"></path><path d="M39.0723 193.823C39.0723 193.823 39.9517 192.439 40.203 192.439C41.0824 192.313 41.0824 193.446 40.8311 194.075C40.5799 194.83 39.9517 195.585 39.8261 195.585C39.7004 195.585 38.821 194.578 39.0723 193.823Z" fill="#A06338"></path><path d="M39.0716 194.075C39.0716 194.075 38.8203 195.586 40.2023 196.467L39.0716 194.075Z" fill="#A06338"></path><path d="M68.2188 195.837C68.2188 195.837 69.2238 199.235 72.9928 199.99C72.9928 199.99 79.0232 198.103 76.008 193.949C76.008 194.075 72.9928 191.81 68.2188 195.837Z" fill="#F5727E"></path><path d="M309.309 146.878C308.806 148.137 308.053 149.521 307.299 149.773C306.419 150.15 306.042 150.78 306.042 150.78L305.289 150.402L304.409 149.899C304.409 149.899 304.409 149.773 304.535 149.647C304.535 149.521 304.66 149.269 304.786 149.018C304.786 149.018 305.037 148.64 304.912 148.263C304.786 147.759 304.786 147.13 305.037 146.752C305.289 146.375 305.54 145.368 305.791 145.368C306.168 145.494 305.54 146.878 305.791 147.13C305.917 147.382 306.168 147.256 306.168 147.256C307.299 146.752 308.806 143.983 309.435 144.361C309.435 144.361 309.56 146.375 309.309 146.878Z" fill="#FFB27D"></path><path d="M305.289 148.64L306.796 149.647C306.922 149.773 307.047 149.647 307.173 149.647L310.942 144.235C311.068 144.109 310.942 143.984 310.942 143.858L309.434 142.851C309.309 142.725 309.183 142.851 309.058 142.851L305.289 148.263C305.163 148.389 305.163 148.515 305.289 148.64Z" fill="#2B478B"></path><path d="M306.67 149.522L307.55 150.151C307.675 150.151 307.801 150.151 307.801 150.151L311.57 144.739C311.57 144.613 311.57 144.613 311.57 144.487L310.691 143.858C310.565 143.858 310.439 143.858 310.439 143.858L306.67 149.27C306.545 149.396 306.545 149.522 306.67 149.522Z" fill="#233862"></path><path d="M284.307 140.963C284.307 140.963 291.72 154.052 294.484 156.444L304.409 149.018C304.409 149.018 305.791 149.521 306.419 150.906C306.419 150.906 300.388 163.24 294.484 163.743C288.579 164.247 280.287 149.018 280.287 149.018L284.307 140.963Z" fill="#B9D8F9"></path><path d="M267.348 229.567H263.076C262.574 229.316 262.071 228.561 261.946 227.554C261.694 226.169 260.187 225.414 259.81 224.281C259.433 223.149 261.192 221.512 261.192 221.512L261.443 221.135L261.694 220.757L264.584 221.387C264.584 221.387 264.709 222.016 264.709 222.897C264.709 223.526 264.709 224.281 264.709 224.911C264.584 226.421 265.086 228.057 266.468 228.309C267.473 228.686 267.473 229.316 267.348 229.567Z" fill="#402961"></path><path d="M292.349 229.568H282.549C282.047 228.938 282.298 226.799 282.298 226.169C282.298 226.044 282.298 225.918 282.298 225.918C282.298 225.918 285.69 223.275 286.067 225.288C286.067 225.414 286.067 225.414 286.067 225.54C286.695 227.428 289.208 228.309 290.716 228.561C291.846 228.687 292.223 229.19 292.349 229.568Z" fill="#402961"></path><path d="M290.464 174.441C290.464 174.441 289.962 180.86 289.333 188.537C288.58 198.984 287.575 211.821 287.449 214.213C287.323 218.366 286.569 225.162 286.569 225.162C286.569 225.162 284.936 226.799 281.795 226.043C281.795 226.043 278.906 216.478 278.152 206.283C278.152 206.158 278.152 205.906 278.152 205.78C277.398 195.46 276.268 173.56 276.268 173.56L290.464 174.441Z" fill="#2B478B"></path><path d="M290.464 174.441C290.464 174.441 289.962 180.86 289.333 188.537L278.152 206.283C278.152 206.158 278.152 205.906 278.152 205.78C277.398 195.46 276.268 173.56 276.268 173.56L290.464 174.441Z" fill="#233862"></path><path d="M288.203 175.196C288.203 175.196 279.032 198.354 273.001 209.178C266.971 220.002 265.086 223.023 265.086 223.023C265.086 223.023 261.569 221.638 261.317 220.631C261.317 220.631 263.579 199.613 267.725 194.579C269.986 191.684 272.75 182.999 272.876 179.979C273.001 176.958 273.755 170.917 273.755 170.917L288.203 175.196Z" fill="#2B478B"></path><path d="M285.941 141.466C282.298 142.599 276.142 139.578 276.142 139.578C276.142 139.578 279.408 137.061 279.282 131.901L282.046 134.166L283.931 135.677C283.931 135.677 283.931 136.558 283.68 138.194C283.68 138.571 283.554 139.075 283.428 139.578C284.936 140.333 285.941 141.466 285.941 141.466Z" fill="#FFB27D"></path><path d="M283.931 135.677C283.931 135.677 283.931 136.558 283.68 138.194C281.544 137.816 279.157 134.418 279.157 134.418C280.162 134.167 281.167 134.041 281.921 134.167L283.931 135.677Z" fill="#ED975D"></path><path d="M284.936 135.551C284.936 135.551 279.031 136.558 278.403 132.782C277.9 129.006 276.644 126.741 280.413 125.86C284.182 125.105 285.187 126.363 285.564 127.622C286.192 128.88 286.443 135.173 284.936 135.551Z" fill="#FFB27D"></path><path d="M290.966 174.945C290.841 175.071 290.715 175.071 290.589 175.071C289.207 175.071 285.313 175.826 281.921 175.448C279.157 175.197 276.644 174.316 274.006 173.183C273.629 173.057 272.875 172.554 272.875 172.176C272.875 171.798 272.875 171.169 273.001 170.288C273.252 167.519 273.503 162.737 273.252 157.325C273.252 156.318 273.126 155.311 273.126 154.304C273.126 146.878 274.508 140.334 277.523 138.068C277.775 137.942 279.282 138.697 280.79 139.327C282.046 139.956 283.428 140.082 284.685 139.83L285.941 140.963C287.448 142.347 289.082 144.235 289.835 147.13C290.464 149.647 290.841 154.052 290.966 158.709C291.092 160.849 291.092 162.862 291.092 164.876V165.002C291.092 165.254 291.092 165.38 291.092 165.631C291.092 170.792 290.966 174.945 290.966 174.945Z" fill="#DFEBFA"></path><path d="M272.875 170.414C273.126 167.645 273.378 162.862 273.126 157.45C273.126 156.443 273.001 155.436 273.001 154.43C274.257 151.409 275.262 149.269 275.262 149.269H278.403C278.277 149.143 280.664 164.75 272.875 170.414Z" fill="#B9D8F9"></path><path d="M257.045 188.034L270.237 189.922C271.996 190.174 273.629 188.915 273.754 187.279L274.634 181.49C274.885 179.727 273.629 178.091 271.996 177.965L258.804 176.078C257.045 175.826 255.412 177.084 255.286 178.721L254.407 184.51C254.03 186.146 255.286 187.782 257.045 188.034Z" fill="#233862"></path><path d="M272.624 179.602C272.247 178.721 271.493 177.965 270.488 177.714C270.363 177.714 270.237 177.714 270.237 177.714L267.599 177.336L267.724 176.077C267.724 175.826 267.724 175.574 267.473 175.322C267.347 175.071 267.096 174.945 266.845 174.945L266.217 174.819L263.453 174.441L262.95 174.315C262.322 174.19 261.82 174.693 261.82 175.196L261.694 176.455L257.171 175.826C255.412 175.574 253.779 176.833 253.528 178.469L252.648 184.258C252.397 186.02 253.653 187.657 255.287 187.908L268.478 189.796C268.729 189.796 268.981 189.796 269.106 189.796C269.483 189.796 269.86 189.67 270.111 189.544C271.116 189.167 271.87 188.16 271.996 187.027L272.875 181.238C273.001 180.608 272.875 180.105 272.624 179.602ZM262.322 175.196C262.322 175.071 262.448 174.945 262.699 174.819H262.825L263.453 174.945L265.589 175.196L266.719 175.322C266.97 175.322 267.096 175.574 267.096 175.826L266.97 177.084L262.196 176.455L262.322 175.196Z" fill="#2B478B"></path><path d="M267.096 170.917C267.096 170.917 266.343 171.798 266.343 172.176C266.217 174.693 267.348 175.071 264.332 176.455C264.332 176.455 263.076 176.958 263.076 175.952C263.076 174.945 263.956 174.945 263.83 173.56C263.579 171.924 263.704 171.924 264.709 171.169L265.338 170.036L267.096 170.917Z" fill="#FFB27D"></path><path d="M265.337 171.546C266.468 171.798 267.724 171.672 267.724 171.672C267.724 171.672 270.991 161.352 271.493 160.471C271.87 159.59 281.292 148.388 281.292 148.388L277.398 138.571C277.398 138.571 267.222 155.688 266.216 158.079C264.458 161.981 263.955 170.917 263.955 170.917C263.955 170.917 264.458 171.421 265.337 171.546Z" fill="#DFEBFA"></path><path d="M278.529 132.53C278.529 132.53 279.157 132.404 279.032 131.649C278.906 130.768 278.906 129.761 279.66 129.887C280.288 130.139 280.414 130.642 280.665 130.265C280.916 129.887 280.916 128.629 282.926 128.503C284.936 128.377 285.816 129.132 286.695 128.754C287.7 128.377 287.7 126.867 287.7 126.867C287.7 126.867 287.449 127.37 287.072 127.496C287.072 127.496 288.705 125.356 286.821 123.846C284.936 122.336 283.178 123.342 282.047 123.342C279.66 123.468 278.278 123.594 277.398 125.104C276.645 126.741 277.021 131.02 278.529 132.53Z" fill="#2B478B"></path><path d="M265.965 172.05C265.965 172.05 266.593 172.805 266.719 173.057C266.844 173.938 267.221 174.441 266.97 174.441C266.593 174.693 266.216 173.938 265.965 173.308C265.839 172.679 265.965 172.05 265.965 172.05Z" fill="#FFB27D"></path><path d="M372 238H0V237.623C0 232.966 3.769 229.316 8.29179 229.316H363.708C368.357 229.316 372 233.092 372 237.623V238Z" fill="#BDCEF8"></path><path opacity="0.4" d="M130.533 228.687C143.647 228.687 154.277 218.037 154.277 204.899C154.277 191.762 143.647 181.112 130.533 181.112C117.419 181.112 106.788 191.762 106.788 204.899C106.788 218.037 117.419 228.687 130.533 228.687Z" fill="#5B4DAD"></path><path d="M137.694 229.945C150.808 229.945 161.439 219.295 161.439 206.158C161.439 193.021 150.808 182.371 137.694 182.371C124.58 182.371 113.949 193.021 113.949 206.158C113.949 219.295 124.58 229.945 137.694 229.945Z" fill="#80CBE8"></path><path d="M137.191 218.996C136.06 218.996 134.93 218.492 134.176 217.611L125.758 208.298C125.005 207.542 125.13 206.284 125.884 205.529C126.638 204.773 127.894 204.899 128.648 205.654L137.065 214.968C137.065 214.968 137.065 214.968 137.191 214.968C137.317 214.968 137.317 214.968 137.317 214.842L146.362 194.201C146.739 193.194 147.995 192.817 148.875 193.194C149.88 193.572 150.257 194.831 149.88 195.712L140.834 216.353C140.332 217.611 139.201 218.492 137.819 218.744C137.694 218.996 137.442 218.996 137.191 218.996Z" fill="white"></path><path d="M106.034 178.972C118.662 178.972 128.899 168.716 128.899 156.066C128.899 143.415 118.662 133.159 106.034 133.159C93.4061 133.159 83.1689 143.415 83.1689 156.066C83.1689 168.716 93.4061 178.972 106.034 178.972Z" fill="#E9A1C6"></path><mask id="mask0" style="mask-type:alpha" maskUnits="userSpaceOnUse" x="83" y="133" width="46" height="46"><path d="M106.034 178.972C118.662 178.972 128.899 168.716 128.899 156.066C128.899 143.415 118.662 133.159 106.034 133.159C93.4061 133.159 83.1689 143.415 83.1689 156.066C83.1689 168.716 93.4061 178.972 106.034 178.972Z" fill="#E9A1C6"></path></mask><g mask="url(#mask0)"><path d="M107.919 142.977C105.281 140.963 97.9939 142.599 98.7477 149.773C99.3759 156.318 102.894 158.709 104.904 159.968C109.427 159.968 109.678 158.583 109.929 158.206C113.447 154.304 113.321 150.025 112.442 146.249C111.562 143.48 109.05 142.473 107.919 142.977Z" fill="#233862"></path><path d="M108.799 142.095C105.281 137.564 97.743 142.725 98.1199 148.514C98.4968 154.304 92.8433 153.674 95.6072 158.835C98.3711 164.121 84.8027 161.226 88.9486 169.155C104.653 176.329 123.749 174.064 123.875 167.519C124 160.848 119.226 161.729 117.09 158.709C115.08 155.688 116.085 140.963 108.799 142.095Z" fill="#233862"></path><path d="M102.894 156.695C102.894 156.695 103.396 160.849 101.889 163.743L97.2402 167.142L115.08 169.407L110.683 163.617C110.683 163.617 108.798 161.352 109.552 155.059C109.929 152.542 102.894 156.695 102.894 156.695Z" fill="#C29575"></path><path d="M109.427 158.709C109.427 158.331 109.427 158.08 109.427 157.702L103.02 157.576C103.02 157.828 103.02 158.205 103.02 158.457C103.648 159.464 104.904 160.849 106.663 160.723C108.296 160.723 109.05 159.59 109.427 158.709Z" fill="#A0795F"></path><path d="M106.286 159.464C104.402 159.464 100.758 156.946 100.758 153.8L100.633 148.891C100.633 147.759 101.387 145.871 102.392 145.745L109.678 145.619C110.683 145.619 111.437 147.507 111.563 148.64L111.689 153.297C111.689 156.569 108.548 159.464 106.286 159.464Z" fill="#C29575"></path><path d="M100.381 154.052C101.763 152.416 101.386 149.395 103.27 149.017C104.778 148.64 106.788 147.633 108.547 145.997C109.552 146.123 110.557 148.262 110.934 149.773C111.437 151.157 112.065 153.422 112.944 154.303C113.698 150.15 111.562 143.983 107.919 143.857C105.155 143.731 102.014 144.738 100.632 146.878C99.2502 149.269 100.381 154.052 100.381 154.052Z" fill="#233862"></path><path d="M101.889 163.617L96.3609 176.958L91.2099 180.231L86.0589 182.874C86.5615 181.741 89.0741 177.588 85.8077 174.064C84.1745 172.301 81.6618 172.553 79.4004 173.308C79.526 173.182 79.7773 173.182 79.9029 173.057C85.8077 170.162 89.9536 166.386 92.8431 164.876C94.4764 164.121 96.6121 163.491 97.7428 163.491C99.6273 163.24 102.14 163.617 101.889 163.617Z" fill="#535DAB"></path><path d="M118.221 163.617C121.361 165.128 131.161 173.56 131.161 173.56C130.784 173.309 127.266 171.295 124.502 174.567C121.613 177.965 122.115 181.238 122.115 181.238L120.859 180.231L115.08 174.945L110.683 163.617C110.683 163.617 116.21 162.611 118.221 163.617Z" fill="#535DAB"></path><path d="M91.5867 184.51H120.859C120.859 184.258 120.859 184.006 120.985 183.755C121.236 182.622 120.482 181.112 120.859 180.105C123.497 172.05 117.467 164.624 117.467 164.624C115.08 163.995 112.693 163.617 110.683 163.491C109.05 165.757 108.17 167.267 106.663 167.896C104.276 167.645 101.889 163.617 101.889 163.617C98.3709 163.995 96.3607 164.876 96.3607 164.876C95.7326 165.253 88.9484 169.281 90.7072 178.091C91.2098 179.601 91.461 181.993 91.5867 184.51Z" fill="#535DAB"></path></g></svg> 