<svg xmlns="http://www.w3.org/2000/svg" fill="#165461" width="32" height="32" viewBox="0 0 32 32" class="tw-fill-emerald-500 tw-w-12 tw-h-12"><path d="M11.32 31.632H.653a.667.667 0 0 1-.667-.667V20.298a.668.668 0 0 1 .997-.58l10.667 6.084a.67.67 0 0 1 .336.581v4.584a.667.667 0 0 1-.667.664zm-10-1.333h9.333V26.77L1.32 21.447v8.852zm20.667 1.333H11.32a.667.667 0 0 1-.667-.667V20.298a.668.668 0 0 1 .997-.58l10.667 6.084a.67.67 0 0 1 .336.581v4.584a.667.667 0 0 1-.667.664zm-10-1.333h9.333V26.77l-9.333-5.323v8.852zm19.36 1.333h-9.36a.665.665 0 0 1-.664-.725l2-22.667a.667.667 0 0 1 .664-.608h5.333c.345 0 .633.265.664.608l1.983 22.481a.665.665 0 0 1-.62.911zm-8.632-1.333h7.877L28.709 8.966h-4.112l-1.883 21.333zm3.082-24.211a.65.65 0 0 1-.297-.075c-1.224-.64-.676-2.075-.313-3.024.145-.379.447-1.169.347-1.345a.684.684 0 0 1-.299-.909.65.65 0 0 1 .884-.292c1.224.64.676 2.075.313 3.023-.145.38-.447 1.169-.345 1.347a.688.688 0 0 1 .299.911.67.67 0 0 1-.588.365zm2.823.008a.712.712 0 0 1-.323-.081c-.385-.201-.628-.481-.721-.831-.157-.596.191-1.143.469-1.581.109-.171.291-.456.3-.56-.327-.171-.473-.552-.305-.877s.549-.429.876-.259c.385.201.629.481.721.832.159.596-.189 1.141-.468 1.58-.109.171-.291.456-.3.561.327.171.473.551.305.876a.62.62 0 0 1-.555.34z"></path></svg>