<svg xmlns="http://www.w3.org/2000/svg" fill="#165461" width="32" height="32" viewBox="0 0 32 32" class="tw-fill-emerald-500 tw-w-12 tw-h-12"><path d="M22.004 23.327h-8a.667.667 0 0 1-.667-.667v-6.667c0-.368.299-.667.667-.667h8c.368 0 .667.299.667.667v6.667a.667.667 0 0 1-.667.667zm-7.333-1.334h6.667V16.66h-6.667v5.333zm6-6a.667.667 0 0 1-.667-.667v-1.277c0-1.008-.916-1.861-2-1.861-1.065 0-2 .896-2 1.917v1.221a.667.667 0 0 1-1.334 0v-1.221c0-1.761 1.527-3.251 3.333-3.251 1.805 0 3.333 1.463 3.333 3.195v1.277a.667.667 0 0 1-.667.667zm-3.334 5.46a.667.667 0 0 1-.465-.189l-1.333-1.293a.668.668 0 0 1 .928-.959l.876.849 2.328-2.189a.667.667 0 0 1 .915.969l-2.792 2.627a.652.652 0 0 1-.456.185zM26 27.327H7.333C3.289 27.327 0 24.04 0 20c0-3.988 3.205-7.243 7.179-7.325a11.314 11.314 0 0 1 10.823-8.001c6.249 0 11.332 5.084 11.332 11.333 0 .121-.004.243-.011.363A5.995 5.995 0 0 1 32 21.335c0 3.304-2.693 5.992-6 5.992zM7.408 14.017c-3.393 0-6.075 2.685-6.075 5.983 0 3.305 2.692 5.993 6 5.993H26a4.668 4.668 0 0 0 4.667-4.66c0-1.676-.885-3.185-2.367-4.031a.663.663 0 0 1-.333-.623c.02-.305.033-.488.033-.675 0-5.513-4.485-10-9.999-10a9.983 9.983 0 0 0-9.681 7.532.656.656 0 0 1-.676.501 1.954 1.954 0 0 1-.216-.024c-.007.003-.013.003-.02.003z"></path></svg>