<svg xmlns="http://www.w3.org/2000/svg" fill="#165461" width="32" height="32" viewBox="0 0 32 32" class="tw-fill-emerald-500 tw-w-12 tw-h-12"><path d="M31.333 29.333H.666a.668.668 0 0 1-.667-.667V3.333c0-.367.299-.667.667-.667h30.667c.367 0 .667.3.667.667v25.333c0 .367-.3.667-.667.667zM1.333 28h29.333V4H1.333v24zM30.667 9.333H1.334a.668.668 0 0 1 0-1.334h29.333c.367 0 .667.3.667.667s-.3.667-.667.667zm-7.083 16.834c-2.575 0-4.667-2.093-4.667-4.667s2.092-4.667 4.667-4.667c2.573 0 4.667 2.093 4.667 4.667s-2.095 4.667-4.667 4.667zm0-8c-1.839 0-3.333 1.495-3.333 3.333s1.495 3.333 3.333 3.333c1.836 0 3.333-1.495 3.333-3.333s-1.496-3.333-3.333-3.333zM24 23.391a.659.659 0 0 1-.451-.176l-1.333-1.224a.665.665 0 1 1 .901-.98l.868.8 4.881-4.783a.672.672 0 0 1 .943.011.67.67 0 0 1-.008.943l-5.333 5.224a.693.693 0 0 1-.468.185zM4 6a.667.667 0 1 1-1.335-.001A.667.667 0 0 1 4 6zm2.667 0a.667.667 0 1 1-1.335-.001A.667.667 0 0 1 6.667 6zm2.666 0a.667.667 0 1 1-1.335-.001A.667.667 0 0 1 9.333 6z"></path></svg>