<svg xmlns="http://www.w3.org/2000/svg" fill="#165461" width="32" height="32" viewBox="0 0 32 32" class="tw-fill-emerald-500 tw-w-12 tw-h-12"><path d="M28.947 31.905a.676.676 0 0 1-.472-.195l-7.481-7.488-3.396 3.789a.666.666 0 0 1-1.109-.183L8.59 9.296a.667.667 0 0 1 .874-.874l18.473 7.895a.667.667 0 0 1 .179 1.114l-3.952 3.475 7.553 7.559c.26.259.26.683 0 .943l-2.301 2.303a.66.66 0 0 1-.469.195zm-7.978-9.321c.176 0 .347.071.472.195l7.507 7.516 1.36-1.361-7.584-7.588a.668.668 0 0 1 .03-.972l3.691-3.247-15.977-6.829 6.837 16.041 3.168-3.535a.673.673 0 0 1 .479-.223c.005.003.012.003.017.003zm-11.09-4.661a.642.642 0 0 1-.151-.017 6.767 6.767 0 0 1-5.245-6.617 6.803 6.803 0 0 1 6.796-6.796c3.196 0 5.993 2.267 6.651 5.391a.665.665 0 1 1-1.304.274 5.481 5.481 0 0 0-5.345-4.331 5.47 5.47 0 0 0-5.463 5.463 5.437 5.437 0 0 0 4.213 5.319.666.666 0 0 1-.152 1.314zm1.4 4.557C5.107 22.48.086 17.459.086 11.288.086 5.116 5.107.095 11.279.095c6.173 0 11.195 5.021 11.195 11.193a.667.667 0 0 1-1.334 0c0-5.436-4.423-9.86-9.861-9.86-5.436 0-9.86 4.423-9.86 9.86 0 5.439 4.423 9.859 9.86 9.859a.667.667 0 0 1 0 1.334z"></path></svg>