<svg xmlns="http://www.w3.org/2000/svg" fill="#165461" width="32" height="32" viewBox="0 0 32 32" class="tw-fill-emerald-500 tw-w-12 tw-h-12"><path d="M20.004 19.66a.669.669 0 0 1-.405-.137l-2.92-2.24-2.815 2.232a.667.667 0 0 1-.828-1.044l3.221-2.555a.668.668 0 0 1 .821-.007l3.333 2.555a.668.668 0 0 1-.408 1.196zm-3.333 10.667a.667.667 0 0 1-.667-.667v-12a.667.667 0 0 1 1.334 0v12a.667.667 0 0 1-.667.667zm9.329-6h-5.996a.667.667 0 0 1 0-1.334H26a4.666 4.666 0 0 0 4.665-4.66c0-1.676-.885-3.185-2.367-4.031a.666.666 0 0 1-.333-.627c.021-.281.033-.473.033-.671 0-5.513-4.485-10-9.999-10a9.983 9.983 0 0 0-9.681 7.532.671.671 0 0 1-.676.501 1.954 1.954 0 0 1-.216-.024c-3.392-.024-6.096 2.679-6.096 5.983s2.692 5.992 6 5.992h6.007a.668.668 0 0 1 0 1.338H7.333C3.289 24.326 0 21.039 0 16.999c0-3.988 3.205-7.243 7.179-7.325a11.314 11.314 0 0 1 10.823-8.001c6.248 0 11.332 5.084 11.332 11.333 0 .121-.004.243-.011.363C30.983 14.48 32 16.345 32 18.334c-.001 3.304-2.692 5.992-6 5.992z"></path></svg>